STARTFONT 2.1
FONT misc.tech
SIZE 15 72 72
FONTBOUNDINGBOX 9 15 0 -3
STARTPROPERTIES 4
FONT_DESCENT 3
FONT_ASCENT 12
DEFAULT_CHAR 0
COPYRIGHT "Copyright (c) 1992 AT&T - All rights reserved."
ENDPROPERTIES
CHARS 45
STARTCHAR ch-0
ENCODING 0
SWIDTH 600 0
DWIDTH 9 0
BBX 9 15 0 -3
BITMAP
0000
0000
0000
0000
3600
2c00
0000
0000
7b00
ce80
0000
0000
0000
0000
0000
ENDCHAR
STARTCHAR ch-1
ENCODING 1
SWIDTH 600 0
DWIDTH 9 0
BBX 9 15 0 -3
BITMAP
0000
0000
0000
7f80
3300
6780
6580
6d80
6d80
6d80
7980
3300
1e00
0000
0000
ENDCHAR
STARTCHAR ch-2
ENCODING 2
SWIDTH 600 0
DWIDTH 9 0
BBX 9 15 0 -3
BITMAP
0000
0000
0000
0000
0800
1400
2200
4100
4100
4100
4100
7f00
0000
0000
0000
ENDCHAR
STARTCHAR ch-3
ENCODING 3
SWIDTH 600 0
DWIDTH 9 0
BBX 9 15 0 -3
BITMAP
0000
0000
0000
0000
0000
0800
1400
2200
4100
0000
0000
0000
0000
0000
0000
ENDCHAR
STARTCHAR ch-4
ENCODING 4
SWIDTH 600 0
DWIDTH 9 0
BBX 9 15 0 -3
BITMAP
0000
0000
0000
0000
0000
0000
4100
2200
1400
0800
0000
0000
0000
0000
0000
ENDCHAR
STARTCHAR ch-5
ENCODING 5
SWIDTH 600 0
DWIDTH 9 0
BBX 9 15 0 -3
BITMAP
0000
0000
0000
7f00
0000
0800
1400
2200
4100
0000
0000
0000
0000
0000
0000
ENDCHAR
STARTCHAR ch-6
ENCODING 6
SWIDTH 600 0
DWIDTH 9 0
BBX 9 15 0 -3
BITMAP
0000
7f00
0000
7f00
0000
0800
1400
2200
4100
0000
0000
0000
0000
0000
0000
ENDCHAR
STARTCHAR ch-7
ENCODING 7
SWIDTH 600 0
DWIDTH 9 0
BBX 9 15 0 -3
BITMAP
1000
0800
0400
0800
1000
0800
0400
0800
1000
0800
0400
0800
1000
0000
0000
ENDCHAR
STARTCHAR ch-8
ENCODING 8
SWIDTH 600 0
DWIDTH 9 0
BBX 9 15 0 -3
BITMAP
0000
0000
3c00
2000
2000
2000
2000
2000
2000
2000
2000
2000
2000
0000
0000
ENDCHAR
STARTCHAR ch-9
ENCODING 9
SWIDTH 600 0
DWIDTH 9 0
BBX 9 15 0 -3
BITMAP
0000
0000
3c00
0400
0400
0400
0400
0400
0400
0400
0400
0400
0400
0000
0000
ENDCHAR
STARTCHAR ch-10
ENCODING 10
SWIDTH 600 0
DWIDTH 9 0
BBX 9 15 0 -3
BITMAP
0000
0000
2000
2000
2000
2000
2000
2000
2000
2000
2000
2000
3c00
0000
0000
ENDCHAR
STARTCHAR ch-11
ENCODING 11
SWIDTH 600 0
DWIDTH 9 0
BBX 9 15 0 -3
BITMAP
0000
0000
0400
0400
0400
0400
0400
0400
0400
0400
0400
0400
3c00
0000
0000
ENDCHAR
STARTCHAR ch-12
ENCODING 12
SWIDTH 600 0
DWIDTH 9 0
BBX 9 15 0 -3
BITMAP
0000
0000
0000
0000
0000
0000
0f80
0800
0800
0800
0800
0000
0000
0000
0000
ENDCHAR
STARTCHAR ch-13
ENCODING 13
SWIDTH 600 0
DWIDTH 9 0
BBX 9 15 0 -3
BITMAP
0000
0000
0000
0000
0000
0000
f800
0800
0800
0800
0800
0000
0000
0000
0000
ENDCHAR
STARTCHAR ch-14
ENCODING 14
SWIDTH 600 0
DWIDTH 9 0
BBX 9 15 0 -3
BITMAP
0000
0000
0800
0800
0800
0800
0f80
0000
0000
0000
0000
0000
0000
0000
0000
ENDCHAR
STARTCHAR ch-15
ENCODING 15
SWIDTH 600 0
DWIDTH 9 0
BBX 9 15 0 -3
BITMAP
0000
0000
0800
0800
0800
0800
f800
0000
0000
0000
0000
0000
0000
0000
0000
ENDCHAR
STARTCHAR ch-16
ENCODING 16
SWIDTH 600 0
DWIDTH 9 0
BBX 9 15 0 -3
BITMAP
0000
0000
0000
0000
0000
7f00
4000
4000
0000
0000
0000
0000
0000
0000
0000
ENDCHAR
STARTCHAR ch-17
ENCODING 17
SWIDTH 600 0
DWIDTH 9 0
BBX 9 15 0 -3
BITMAP
0000
0000
0000
4100
3600
2200
0000
2200
3600
4100
0000
0000
0000
0000
0000
ENDCHAR
STARTCHAR ch-18
ENCODING 18
SWIDTH 600 0
DWIDTH 9 0
BBX 9 15 0 -3
BITMAP
0000
0000
0000
0000
1c00
2200
4100
4100
0000
0000
0000
0000
0000
0000
0000
ENDCHAR
STARTCHAR ch-19
ENCODING 19
SWIDTH 600 0
DWIDTH 9 0
BBX 9 15 0 -3
BITMAP
0000
0000
0000
0000
1c00
2200
4100
4100
7f00
0000
0000
0000
0000
0000
0000
ENDCHAR
STARTCHAR ch-20
ENCODING 20
SWIDTH 600 0
DWIDTH 9 0
BBX 9 15 0 -3
BITMAP
0000
0000
0000
1c00
2200
4100
2200
2200
1400
1400
0800
0000
0000
0000
0000
ENDCHAR
STARTCHAR ch-21
ENCODING 21
SWIDTH 600 0
DWIDTH 9 0
BBX 9 15 0 -3
BITMAP
0000
0000
0000
1c00
2200
4100
4100
4100
2200
5c00
8000
0000
0000
0000
0000
ENDCHAR
STARTCHAR ch-22
ENCODING 22
SWIDTH 600 0
DWIDTH 9 0
BBX 9 15 0 -3
BITMAP
0000
0000
0000
0800
3e00
2a00
7f00
2a00
3e00
0800
0000
0000
0000
0000
0000
ENDCHAR
STARTCHAR ch-23
ENCODING 23
SWIDTH 600 0
DWIDTH 9 0
BBX 9 15 0 -3
BITMAP
0000
2200
2200
ff80
2200
2200
2200
2200
ff80
2200
2200
0000
0000
0000
0000
ENDCHAR
STARTCHAR ch-24
ENCODING 24
SWIDTH 600 0
DWIDTH 9 0
BBX 9 15 0 -3
BITMAP
0000
0000
0000
6300
5500
3e00
1400
3e00
5500
6300
0000
0000
0000
0000
0000
ENDCHAR
STARTCHAR ch-25
ENCODING 25
SWIDTH 600 0
DWIDTH 9 0
BBX 9 15 0 -3
BITMAP
0000
0000
0000
0000
0000
4000
4000
4000
7f00
0000
0000
0000
0000
0000
0000
ENDCHAR
STARTCHAR ch-26
ENCODING 26
SWIDTH 600 0
DWIDTH 9 0
BBX 9 15 0 -3
BITMAP
0000
0000
1c00
1c00
2a00
4500
7b00
4100
2a00
1c00
1c00
0000
0000
0000
0000
ENDCHAR
STARTCHAR ch-27
ENCODING 27
SWIDTH 600 0
DWIDTH 9 0
BBX 9 15 0 -3
BITMAP
0000
0000
3e00
2200
1400
1400
0800
1400
1400
2200
3e00
0000
0000
0000
0000
ENDCHAR
STARTCHAR ch-28
ENCODING 28
SWIDTH 600 0
DWIDTH 9 0
BBX 9 15 0 -3
BITMAP
0000
0000
fc00
8000
8000
8000
8000
0000
0000
0000
0000
0000
0000
0000
0000
ENDCHAR
STARTCHAR ch-29
ENCODING 29
SWIDTH 600 0
DWIDTH 9 0
BBX 9 15 0 -3
BITMAP
0000
0000
0f80
0080
0080
0080
0080
0000
0000
0000
0000
0000
0000
0000
0000
ENDCHAR
STARTCHAR ch-30
ENCODING 30
SWIDTH 600 0
DWIDTH 9 0
BBX 9 15 0 -3
BITMAP
0000
0000
0000
0000
0000
0000
0000
8000
8000
8000
8000
8000
f800
0000
0000
ENDCHAR
STARTCHAR ch-31
ENCODING 31
SWIDTH 600 0
DWIDTH 9 0
BBX 9 15 0 -3
BITMAP
0000
0000
0000
0000
0000
0000
0000
0080
0080
0080
0080
0080
0f80
0000
0000
ENDCHAR
STARTCHAR ch-32
ENCODING 32
SWIDTH 600 0
DWIDTH 9 0
BBX 9 15 0 -3
BITMAP
0000
0e00
1600
1000
1000
2000
2000
2000
4000
4000
0000
0000
0000
0000
0000
ENDCHAR
STARTCHAR ch-33
ENCODING 33
SWIDTH 600 0
DWIDTH 9 0
BBX 9 15 0 -3
BITMAP
0000
0000
0000
0000
0000
0200
0200
0400
0400
0400
0800
0800
6800
7000
0000
ENDCHAR
STARTCHAR ch-34
ENCODING 34
SWIDTH 600 0
DWIDTH 9 0
BBX 9 15 0 -3
BITMAP
0000
0000
0000
0000
1c00
2200
4100
0000
0000
0000
0000
0000
0000
0000
0000
ENDCHAR
STARTCHAR ch-35
ENCODING 35
SWIDTH 600 0
DWIDTH 9 0
BBX 9 15 0 -3
BITMAP
0000
0000
0000
0000
0000
0000
4100
2200
1c00
0000
0000
0000
0000
0000
0000
ENDCHAR
STARTCHAR ch-36
ENCODING 36
SWIDTH 600 0
DWIDTH 9 0
BBX 9 15 0 -3
BITMAP
0000
0000
0000
0000
0000
eb80
1400
2200
4100
0000
0000
0000
0000
0000
0000
ENDCHAR
STARTCHAR ch-37
ENCODING 37
SWIDTH 600 0
DWIDTH 9 0
BBX 9 15 0 -3
BITMAP
0000
0000
0000
0000
0000
e780
1000
0800
0780
0000
0000
0000
0000
0000
0000
ENDCHAR
STARTCHAR ch-38
ENCODING 38
SWIDTH 600 0
DWIDTH 9 0
BBX 9 15 0 -3
BITMAP
0000
0000
0000
fe00
a200
9500
8880
9500
a200
fe00
0000
0000
0000
0000
0000
ENDCHAR
STARTCHAR ch-39
ENCODING 39
SWIDTH 600 0
DWIDTH 9 0
BBX 9 15 0 -3
BITMAP
0000
0000
0000
ff80
a280
9480
8880
9480
a280
ff80
0000
0000
0000
0000
0000
ENDCHAR
STARTCHAR ch-40
ENCODING 40
SWIDTH 600 0
DWIDTH 9 0
BBX 9 15 0 -3
BITMAP
0000
0000
0000
ff80
8080
aa80
9480
8080
be80
ff80
0000
0000
0000
0000
0000
ENDCHAR
STARTCHAR ch-41
ENCODING 41
SWIDTH 600 0
DWIDTH 9 0
BBX 9 15 0 -3
BITMAP
0400
0400
0800
0800
1000
1000
2000
1000
1000
0800
0800
0400
0400
0000
0000
ENDCHAR
STARTCHAR ch-42
ENCODING 42
SWIDTH 600 0
DWIDTH 9 0
BBX 9 15 0 -3
BITMAP
1000
1000
0800
0800
0400
0400
0200
0400
0400
0800
0800
1000
1000
0000
0000
ENDCHAR
STARTCHAR ch-43
ENCODING 43
SWIDTH 600 0
DWIDTH 9 0
BBX 9 15 0 -3
BITMAP
0000
0000
0000
3f80
2280
5480
8880
5480
2280
3f80
0000
0000
0000
0000
0000
ENDCHAR
STARTCHAR ch-44
ENCODING 44
SWIDTH 600 0
DWIDTH 9 0
BBX 9 15 0 -3
BITMAP
0000
0000
3800
6400
c200
8100
8100
8100
8100
4300
2600
1c00
0000
0000
0000
ENDCHAR
ENDFONT
